#!OML:ASF I:\Actors\actors\Patient Classification 1\Patient 1\Session 1\Subject1.ASF
:FULLY-SPECIFIED
:DEGREES
173
root 0.739797 17.4436 9.24367 11.1953 -2.72915 -9.23937
lowerback -3.04136 1.27005 5.83053
upperback -9.18624 1.9466 2.37644
thorax -7.85407 0.644736 -0.819481
lowerneck -8.48471 -4.59919 -3.4403
upperneck 15.2436 -7.31412 9.17193
head 6.49674 -3.04845 2.88387
rclavicle -1.50579e-014 -5.36719e-015
rhumerus -55.8887 -40.2367 -49.0764
rradius 25.727
rwrist 48.9822
rhand 5.28565 -32.7051
rfingers 7.12502
rthumb 30.6424 -60.1741
lclavicle -1.50579e-014 -5.36719e-015
lhumerus -53.7344 40.2372 54.1014
lradius 24.4304
lwrist -24.5496
lhand -17.1176 -8.83703
lfingers 7.12502
lthumb 9.12188 20.9457
rfemur -5.84955 26.2111 24.7359
rtibia 1.59839
rfoot -11.1353 -25.615
rtoes 0.485438
lfemur 3.471 -46.3817 -11.0443
ltibia -4.57912
lfoot -24.4947 54.8772
ltoes 14.9822
174
root 0.739241 17.4436 9.24542 11.1951 -2.69937 -9.23759
lowerback -2.59814 1.30064 5.98961
upperback -9.54001 2.04164 2.25577
thorax -8.49343 0.653071 -1.04786
lowerneck -8.43084 -4.67774 -3.44975
upperneck 15.7983 -7.46603 9.12743
head 6.67255 -3.11257 2.8594
rclavicle 8.39865e-015 -1.43125e-014
rhumerus -56.3552 -39.6119 -49.2533
rradius 25.9672
rwrist 48.309
rhand 5.26925 -32.754
rfingers 7.12502
rthumb 30.6268 -60.226
lclavicle 8.39865e-015 -1.43125e-014
lhumerus -54.4466 39.8481 53.4374
lradius 24.3056
lwrist -24.7366
lhand -17.0893 -8.79311
lfingers 7.12502
lthumb 9.14921 20.9884
rfemur -5.8151 26.2407 24.7448
rtibia 1.55184
rfoot -11.1111 -25.6658
rtoes 0.44594
lfemur 3.47465 -46.3629 -11.042
ltibia -4.58353
lfoot -24.5041 54.8072
ltoes 15.0149
175
root 0.737501 17.4441 9.24642 11.1944 -2.70034 -9.22668
lowerback -3.10064 1.24712 5.82735
upperback -9.19194 1.91149 2.38443
thorax -7.82825 0.628468 -0.80688
lowerneck -8.89309 -4.65184 -3.46239
upperneck 15.8902 -7.40908 9.00772
head 6.77563 -3.07918 2.81858
rclavicle 3.16565e-014 -3.20043e-014
rhumerus -55.3493 -39.6191 -50.0575
rradius 26.0035
rwrist 47.9702
rhand 5.22822 -32.7923
rfingers 7.12502
rthumb 30.5876 -60.2716
lclavicle 3.16565e-014 -3.20043e-014
lhumerus -54.4323 40.6985 53.1827
lradius 24.1153
lwrist -25.2789
lhand -17.1161 -8.72832
lfingers 7.12502
lthumb 9.1233 21.0544
rfemur -5.81073 26.3121 24.7417
rtibia 1.56486
rfoot -11.132 -25.7439
rtoes 0.643604
lfemur 3.46782 -46.3268 -11.0336
ltibia -4.59936
lfoot -24.434 54.7924
ltoes 15.0287
176
root 0.736316 17.4442 9.24786 11.1862 -2.69442 -9.20118
lowerback -3.11796 1.25433 5.82767
upperback -9.20107 1.91836 2.35332
thorax -7.82668 0.630439 -0.839679
lowerneck -9.02219 -4.64327 -3.43354
upperneck 16.1981 -7.4213 8.96936
head 6.89542 -3.07442 2.7983
rclavicle -1.66979e-014 8.88567e-014
rhumerus -55.2053 -39.4643 -50.3792
rradius 26.0994
rwrist 47.7228
rhand 5.15074 -32.7987
rfingers 7.12502
rthumb 30.5137 -60.2917
lclavicle -1.66979e-014 8.88567e-014
lhumerus -54.7248 40.8995 52.7306
lradius 23.9233
lwrist -25.6949
lhand -17.1857 -8.5678
lfingers 7.12502
lthumb 9.05616 21.2178
rfemur -5.79084 26.3043 24.7262
rtibia 1.56573
rfoot -11.1762 -25.7621
rtoes 0.773937
lfemur 3.4486 -46.3069 -11.047
ltibia -4.59075
lfoot -24.2821 54.8143
ltoes 14.8401
177
root 0.736633 17.4435 9.25015 11.1729 -2.66122 -9.19488
lowerback -3.1235 1.26535 5.90354
upperback -9.2269 1.93185 2.29497
thorax -7.84798 0.628236 -0.943412
lowerneck -9.03719 -4.59146 -3.35417
upperneck 16.4561 -7.37395 8.9074
head 6.97243 -3.04446 2.77011
rclavicle 3.13583e-014 -4.33351e-014
rhumerus -55.1667 -39.3432 -50.6421
rradius 26.1986
rwrist 47.5906
rhand 5.05931 -32.7878
rfingers 7.12502
rthumb 30.4265 -60.297
lclavicle 3.13583e-014 -4.33351e-014
lhumerus -55.0619 41.1482 52.1338
lradius 23.6992
lwrist -26.1654
lhand -17.1457 -8.60768
lfingers 7.12502
lthumb 9.09476 21.1762
rfemur -5.75704 26.1808 24.7363
rtibia 1.54831
rfoot -11.1375 -25.6963
rtoes 0.492245
lfemur 3.45397 -46.2817 -11.0632
ltibia -4.58323
lfoot -24.1048 54.8037
ltoes 14.6213
178
root 0.736336 17.4429 9.25237 11.1691 -2.63448 -9.20714
lowerback -3.13373 1.27848 5.98621
upperback -9.25563 1.94874 2.24814
thorax -7.86992 0.627624 -1.03881
lowerneck -8.99289 -4.62658 -3.34195
upperneck 16.5548 -7.42409 8.85309
head 6.99703 -3.07095 2.74681
rclavicle 1.19271e-014 -1.61016e-014
rhumerus -55.1248 -39.198 -50.9104
rradius 26.3194
rwrist 47.3848
rhand 5.09897 -32.8946
rfingers 7.12502
rthumb 30.4644 -60.3968
lclavicle 1.19271e-014 -1.61016e-014
lhumerus -55.4638 41.4954 51.4181
lradius 23.4735
lwrist -26.7757
lhand -17.0164 -8.75566
lfingers 7.12502
lthumb 9.21955 21.0228
rfemur -5.76414 26.0728 24.7587
rtibia 1.57859
rfoot -11.107 -25.6314
rtoes 0.279678
lfemur 3.45093 -46.2076 -11.0369
ltibia -4.58881
lfoot -24.0516 54.7215
ltoes 14.5181
